<svg width="768" height="370" viewBox="0 0 768 370" fill="none" xmlns="http://www.w3.org/2000/svg">
<g filter="url(#filter0_f)">
<path d="M17.6562 7.38704C18.3427 5.75358 20.6573 5.75358 21.3438 7.38704L23.6035 12.7637C23.8843 13.4318 24.5045 13.8958 25.2248 13.9764L30.939 14.6161C32.6258 14.8049 33.3255 16.8767 32.0985 18.0495L27.6703 22.2819C27.1753 22.755 26.9568 23.4485 27.0911 24.1199L28.3015 30.1727C28.6436 31.8832 26.7848 33.1813 25.2967 32.271L20.5437 29.3634C19.9031 28.9716 19.0969 28.9716 18.4563 29.3634L13.7033 32.271C12.2152 33.1813 10.3564 31.8832 10.6985 30.1727L11.9089 24.1199C12.0432 23.4485 11.8247 22.755 11.3297 22.2819L6.90154 18.0495C5.67454 16.8767 6.37416 14.8049 8.06096 14.6161L13.7752 13.9764C14.4955 13.8958 15.1157 13.4319 15.3965 12.7637L17.6562 7.38704Z" fill="#F4ECCE" fill-opacity="0.63"/>
</g>
<g filter="url(#filter1_f)">
<path d="M200.161 5.29688C200.853 3.67932 203.147 3.67932 203.839 5.29688L204.856 7.67345C205.14 8.33677 205.759 8.79579 206.476 8.87464L209.097 9.16279C210.794 9.34941 211.492 11.4402 210.247 12.609L208.178 14.5517C207.672 15.0264 207.448 15.7293 207.587 16.4089L208.146 19.1581C208.494 20.8632 206.648 22.1677 205.157 21.2715L203.03 19.9938C202.396 19.613 201.604 19.613 200.97 19.9938L198.843 21.2715C197.352 22.1677 195.506 20.8632 195.854 19.1581L196.413 16.4089C196.552 15.7293 196.328 15.0264 195.822 14.5517L193.753 12.609C192.508 11.4402 193.206 9.34941 194.903 9.16279L197.524 8.87464C198.241 8.79579 198.86 8.33677 199.144 7.67345L200.161 5.29688Z" fill="#F4ECCE" fill-opacity="0.7"/>
</g>
<g filter="url(#filter2_f)">
<path d="M317.656 93.387C318.343 91.7536 320.657 91.7536 321.344 93.387L323.603 98.7637C323.884 99.4318 324.505 99.8958 325.225 99.9764L330.939 100.616C332.626 100.805 333.325 102.877 332.098 104.049L327.67 108.282C327.175 108.755 326.957 109.448 327.091 110.12L328.302 116.173C328.644 117.883 326.785 119.181 325.297 118.271L320.544 115.363C319.903 114.972 319.097 114.972 318.456 115.363L313.703 118.271C312.215 119.181 310.356 117.883 310.698 116.173L311.909 110.12C312.043 109.448 311.825 108.755 311.33 108.282L306.902 104.049C305.675 102.877 306.374 100.805 308.061 100.616L313.775 99.9764C314.495 99.8958 315.116 99.4319 315.397 98.7637L317.656 93.387Z" fill="#F4ECCE" fill-opacity="0.45"/>
</g>
<g filter="url(#filter3_f)">
<path d="M442.149 203.531C442.826 201.873 445.174 201.873 445.851 203.531L446.591 205.342C446.867 206.017 447.489 206.489 448.214 206.572L450.304 206.813C451.974 207.005 452.676 209.047 451.477 210.226L449.683 211.99C449.205 212.46 448.994 213.139 449.122 213.798L449.584 216.174C449.918 217.893 448.038 219.181 446.556 218.248L445.065 217.31C444.414 216.901 443.586 216.901 442.935 217.31L441.444 218.248C439.962 219.181 438.082 217.893 438.416 216.174L438.878 213.798C439.006 213.139 438.795 212.46 438.317 211.99L436.523 210.226C435.324 209.047 436.026 207.005 437.696 206.813L439.786 206.572C440.511 206.489 441.133 206.017 441.409 205.342L442.149 203.531Z" fill="#F4ECCE" fill-opacity="0.79"/>
</g>
<g filter="url(#filter4_f)">
<path d="M494.161 329.297C494.853 327.679 497.147 327.679 497.839 329.297L498.856 331.673C499.14 332.337 499.759 332.796 500.476 332.875L503.097 333.163C504.794 333.349 505.492 335.44 504.247 336.609L502.178 338.552C501.672 339.026 501.448 339.729 501.587 340.409L502.146 343.158C502.494 344.863 500.648 346.168 499.157 345.271L497.03 343.994C496.396 343.613 495.604 343.613 494.97 343.994L492.843 345.271C491.352 346.168 489.506 344.863 489.854 343.158L490.413 340.409C490.552 339.729 490.328 339.026 489.822 338.552L487.753 336.609C486.508 335.44 487.206 333.349 488.903 333.163L491.524 332.875C492.241 332.796 492.86 332.337 493.144 331.673L494.161 329.297Z" fill="#F4ECCE" fill-opacity="0.74"/>
</g>
<g filter="url(#filter5_f)">
<path d="M749.656 201.387C750.343 199.754 752.657 199.754 753.344 201.387L755.603 206.764C755.884 207.432 756.505 207.896 757.225 207.976L762.939 208.616C764.626 208.805 765.325 210.877 764.098 212.049L759.67 216.282C759.175 216.755 758.957 217.448 759.091 218.12L760.302 224.173C760.644 225.883 758.785 227.181 757.297 226.271L752.544 223.363C751.903 222.972 751.097 222.972 750.456 223.363L745.703 226.271C744.215 227.181 742.356 225.883 742.698 224.173L743.909 218.12C744.043 217.448 743.825 216.755 743.33 216.282L738.902 212.049C737.675 210.877 738.374 208.805 740.061 208.616L745.775 207.976C746.495 207.896 747.116 207.432 747.397 206.764L749.656 201.387Z" fill="#F4ECCE" fill-opacity="0.85"/>
</g>
<g filter="url(#filter6_f)">
<path d="M697.662 348.289C698.354 346.673 700.646 346.673 701.338 348.289L702.493 350.984C702.778 351.647 703.397 352.106 704.113 352.184L707.067 352.508C708.765 352.695 709.463 354.787 708.216 355.956L705.903 358.124C705.396 358.599 705.172 359.303 705.311 359.983L705.939 363.065C706.287 364.77 704.443 366.075 702.951 365.18L700.529 363.727C699.896 363.347 699.104 363.347 698.471 363.727L696.049 365.18C694.557 366.075 692.713 364.77 693.061 363.065L693.689 359.983C693.828 359.303 693.604 358.599 693.097 358.124L690.784 355.956C689.537 354.787 690.235 352.695 691.933 352.508L694.887 352.184C695.603 352.106 696.222 351.647 696.507 350.984L697.662 348.289Z" fill="#F4ECCE" fill-opacity="0.85"/>
</g>
<defs>
<filter id="filter0_f" x="0.280945" y="0.162109" width="38.4381" height="38.4086" filterUnits="userSpaceOnUse" color-interpolation-filters="sRGB">
<feFlood flood-opacity="0" result="BackgroundImageFix"/>
<feBlend mode="normal" in="SourceGraphic" in2="BackgroundImageFix" result="shape"/>
<feGaussianBlur stdDeviation="3" result="effect1_foregroundBlur"/>
</filter>
<filter id="filter1_f" x="189.119" y="0.0839844" width="25.7615" height="25.479" filterUnits="userSpaceOnUse" color-interpolation-filters="sRGB">
<feFlood flood-opacity="0" result="BackgroundImageFix"/>
<feBlend mode="normal" in="SourceGraphic" in2="BackgroundImageFix" result="shape"/>
<feGaussianBlur stdDeviation="2" result="effect1_foregroundBlur"/>
</filter>
<filter id="filter2_f" x="301.281" y="87.1621" width="36.4381" height="36.4086" filterUnits="userSpaceOnUse" color-interpolation-filters="sRGB">
<feFlood flood-opacity="0" result="BackgroundImageFix"/>
<feBlend mode="normal" in="SourceGraphic" in2="BackgroundImageFix" result="shape"/>
<feGaussianBlur stdDeviation="2.5" result="effect1_foregroundBlur"/>
</filter>
<filter id="filter3_f" x="431.923" y="198.287" width="24.1546" height="24.2734" filterUnits="userSpaceOnUse" color-interpolation-filters="sRGB">
<feFlood flood-opacity="0" result="BackgroundImageFix"/>
<feBlend mode="normal" in="SourceGraphic" in2="BackgroundImageFix" result="shape"/>
<feGaussianBlur stdDeviation="2" result="effect1_foregroundBlur"/>
</filter>
<filter id="filter4_f" x="484.119" y="325.084" width="23.7615" height="23.479" filterUnits="userSpaceOnUse" color-interpolation-filters="sRGB">
<feFlood flood-opacity="0" result="BackgroundImageFix"/>
<feBlend mode="normal" in="SourceGraphic" in2="BackgroundImageFix" result="shape"/>
<feGaussianBlur stdDeviation="1.5" result="effect1_foregroundBlur"/>
</filter>
<filter id="filter5_f" x="735.281" y="197.162" width="32.4381" height="32.4086" filterUnits="userSpaceOnUse" color-interpolation-filters="sRGB">
<feFlood flood-opacity="0" result="BackgroundImageFix"/>
<feBlend mode="normal" in="SourceGraphic" in2="BackgroundImageFix" result="shape"/>
<feGaussianBlur stdDeviation="1.5" result="effect1_foregroundBlur"/>
</filter>
<filter id="filter6_f" x="687.149" y="344.077" width="24.702" height="24.3936" filterUnits="userSpaceOnUse" color-interpolation-filters="sRGB">
<feFlood flood-opacity="0" result="BackgroundImageFix"/>
<feBlend mode="normal" in="SourceGraphic" in2="BackgroundImageFix" result="shape"/>
<feGaussianBlur stdDeviation="1.5" result="effect1_foregroundBlur"/>
</filter>
</defs>
</svg>
