<svg width="1391" height="453" viewBox="0 0 1391 453" fill="none" xmlns="http://www.w3.org/2000/svg">
<g filter="url(#filter0_f)">
<path d="M80.159 219.337C80.8487 217.712 83.1513 217.712 83.841 219.337L84.3052 220.43C84.5877 221.096 85.2074 221.557 85.9259 221.636L87.2225 221.78C88.9152 221.968 89.6138 224.05 88.3768 225.221L87.2753 226.263C86.7743 226.737 86.5529 227.436 86.6895 228.112L86.9753 229.527C87.3202 231.234 85.4689 232.536 83.9789 231.633L83.036 231.062C82.3992 230.677 81.6008 230.677 80.964 231.062L80.0211 231.633C78.5311 232.536 76.6798 231.234 77.0247 229.527L77.3105 228.112C77.4471 227.436 77.2257 226.737 76.7247 226.263L75.6232 225.221C74.3862 224.05 75.0848 221.968 76.7775 221.78L78.0741 221.636C78.7926 221.557 79.4123 221.096 79.6948 220.43L80.159 219.337Z" fill="#F4ECCE" fill-opacity="0.37"/>
</g>
<g filter="url(#filter1_f)">
<path d="M1158.16 4.33657C1158.85 2.71195 1161.15 2.71195 1161.84 4.33657L1162.31 5.43013C1162.59 6.09559 1163.21 6.55679 1163.93 6.63642L1165.22 6.78011C1166.92 6.9677 1167.61 9.0501 1166.38 10.2207L1165.28 11.263C1164.77 11.737 1164.55 12.4357 1164.69 13.1117L1164.98 14.5267C1165.32 16.2342 1163.47 17.5358 1161.98 16.6334L1161.04 16.0624C1160.4 15.6768 1159.6 15.6768 1158.96 16.0624L1158.02 16.6334C1156.53 17.5358 1154.68 16.2342 1155.02 14.5267L1155.31 13.1117C1155.45 12.4357 1155.23 11.737 1154.72 11.263L1153.62 10.2207C1152.39 9.0501 1153.08 6.9677 1154.78 6.78011L1156.07 6.63642C1156.79 6.55679 1157.41 6.09559 1157.69 5.43013L1158.16 4.33657Z" fill="#F4ECCE" fill-opacity="0.37"/>
</g>
<g filter="url(#filter2_f)">
<path d="M203.162 363.282C203.855 361.667 206.145 361.667 206.838 363.282L208.131 366.295C208.416 366.957 209.034 367.415 209.751 367.494L213.037 367.854C214.736 368.04 215.434 370.134 214.186 371.302L211.628 373.696C211.12 374.171 210.896 374.876 211.035 375.557L211.732 378.972C212.08 380.676 210.237 381.982 208.745 381.088L206.028 379.461C205.395 379.082 204.605 379.082 203.972 379.461L201.255 381.088C199.763 381.982 197.92 380.676 198.268 378.972L198.965 375.557C199.104 374.876 198.88 374.171 198.372 373.696L195.814 371.302C194.566 370.134 195.264 368.04 196.963 367.854L200.249 367.494C200.966 367.415 201.584 366.957 201.869 366.295L203.162 363.282Z" fill="#F4ECCE" fill-opacity="0.54"/>
</g>
<g filter="url(#filter3_f)">
<path d="M648.16 204.315C648.851 202.694 651.149 202.694 651.84 204.315L652.58 206.052C652.864 206.716 653.483 207.176 654.201 207.255L656.158 207.471C657.854 207.659 658.552 209.746 657.311 210.915L655.727 212.407C655.223 212.882 655.001 213.583 655.138 214.261L655.561 216.343C655.907 218.049 654.059 219.352 652.568 218.453L651.033 217.528C650.398 217.145 649.602 217.145 648.967 217.528L647.432 218.453C645.941 219.352 644.093 218.049 644.439 216.343L644.862 214.261C644.999 213.583 644.777 212.882 644.273 212.407L642.689 210.915C641.448 209.746 642.146 207.659 643.842 207.471L645.799 207.255C646.517 207.176 647.136 206.716 647.42 206.052L648.16 204.315Z" fill="#F4ECCE" fill-opacity="0.54"/>
</g>
<g filter="url(#filter4_f)">
<path d="M1380.66 14.3786C1381.34 12.7466 1383.66 12.7466 1384.34 14.3786L1384.39 14.4965C1384.67 15.1642 1385.29 15.6277 1386.01 15.7082L1386.32 15.7429C1388.01 15.9315 1388.71 18.005 1387.48 19.1775L1387.1 19.547C1386.6 20.0203 1386.38 20.7146 1386.52 21.3868L1386.6 21.7989C1386.94 23.509 1385.08 24.8076 1383.59 23.8986L1383.54 23.8666C1382.9 23.4758 1382.1 23.4758 1381.46 23.8666L1381.41 23.8986C1379.92 24.8076 1378.06 23.509 1378.4 21.7989L1378.48 21.3868C1378.62 20.7146 1378.4 20.0203 1377.9 19.547L1377.52 19.1775C1376.29 18.005 1376.99 15.9315 1378.68 15.7429L1378.99 15.7082C1379.71 15.6277 1380.33 15.1642 1380.61 14.4965L1380.66 14.3786Z" fill="#F4ECCE" fill-opacity="0.54"/>
</g>
<g filter="url(#filter5_f)">
<path d="M1119.66 439.379C1120.34 437.747 1122.66 437.747 1123.34 439.379L1123.39 439.497C1123.67 440.164 1124.29 440.628 1125.01 440.708L1125.32 440.743C1127.01 440.931 1127.71 443.005 1126.48 444.177L1126.1 444.547C1125.6 445.02 1125.38 445.715 1125.52 446.387L1125.6 446.799C1125.94 448.509 1124.08 449.808 1122.59 448.899L1122.54 448.867C1121.9 448.476 1121.1 448.476 1120.46 448.867L1120.41 448.899C1118.92 449.808 1117.06 448.509 1117.4 446.799L1117.48 446.387C1117.62 445.715 1117.4 445.02 1116.9 444.547L1116.52 444.177C1115.29 443.005 1115.99 440.931 1117.68 440.743L1117.99 440.708C1118.71 440.628 1119.33 440.164 1119.61 439.497L1119.66 439.379Z" fill="#F4ECCE" fill-opacity="0.54"/>
</g>
<g filter="url(#filter6_f)">
<path d="M354.657 47.3786C355.344 45.7466 357.656 45.7466 358.343 47.3786L358.393 47.4965C358.674 48.1642 359.294 48.6277 360.014 48.7082L360.325 48.7429C362.013 48.9315 362.712 51.005 361.483 52.1775L361.096 52.547C360.6 53.0203 360.381 53.7146 360.516 54.3868L360.598 54.7989C360.941 56.509 359.083 57.8076 357.595 56.8986L357.542 56.8666C356.902 56.4758 356.098 56.4758 355.458 56.8666L355.405 56.8986C353.917 57.8076 352.059 56.509 352.402 54.7989L352.484 54.3868C352.619 53.7146 352.4 53.0203 351.904 52.547L351.517 52.1775C350.288 51.005 350.987 48.9315 352.675 48.7429L352.986 48.7082C353.706 48.6277 354.326 48.1642 354.607 47.4965L354.657 47.3786Z" fill="#F4ECCE" fill-opacity="0.54"/>
</g>
<g filter="url(#filter7_f)">
<path d="M134.657 23.3786C135.344 21.7466 137.656 21.7466 138.343 23.3786L138.393 23.4965C138.674 24.1642 139.294 24.6277 140.014 24.7082L140.325 24.7429C142.013 24.9315 142.712 27.005 141.483 28.1775L141.096 28.547C140.6 29.0203 140.381 29.7146 140.516 30.3868L140.598 30.7989C140.941 32.509 139.083 33.8076 137.595 32.8986L137.542 32.8666C136.902 32.4758 136.098 32.4758 135.458 32.8666L135.405 32.8986C133.917 33.8076 132.059 32.509 132.402 30.7989L132.484 30.3868C132.619 29.7146 132.4 29.0203 131.904 28.547L131.517 28.1775C130.288 27.005 130.987 24.9315 132.675 24.7429L132.986 24.7082C133.706 24.6277 134.326 24.1642 134.607 23.4965L134.657 23.3786Z" fill="#F4ECCE"/>
</g>
<g filter="url(#filter8_f)">
<path d="M1363.66 390.379C1364.34 388.747 1366.66 388.747 1367.34 390.379L1367.39 390.497C1367.67 391.164 1368.29 391.628 1369.01 391.708L1369.32 391.743C1371.01 391.931 1371.71 394.005 1370.48 395.177L1370.1 395.547C1369.6 396.02 1369.38 396.715 1369.52 397.387L1369.6 397.799C1369.94 399.509 1368.08 400.808 1366.59 399.899L1366.54 399.867C1365.9 399.476 1365.1 399.476 1364.46 399.867L1364.41 399.899C1362.92 400.808 1361.06 399.509 1361.4 397.799L1361.48 397.387C1361.62 396.715 1361.4 396.02 1360.9 395.547L1360.52 395.177C1359.29 394.005 1359.99 391.931 1361.68 391.743L1361.99 391.708C1362.71 391.628 1363.33 391.164 1363.61 390.497L1363.66 390.379Z" fill="#F4ECCE" fill-opacity="0.54"/>
</g>
<g filter="url(#filter9_f)">
<path d="M828.657 161.379C829.344 159.747 831.656 159.747 832.343 161.379L832.393 161.497C832.674 162.164 833.294 162.628 834.014 162.708L834.325 162.743C836.013 162.931 836.712 165.005 835.483 166.177L835.096 166.547C834.6 167.02 834.381 167.715 834.516 168.387L834.598 168.799C834.941 170.509 833.083 171.808 831.595 170.899L831.542 170.867C830.902 170.476 830.098 170.476 829.458 170.867L829.405 170.899C827.917 171.808 826.059 170.509 826.402 168.799L826.484 168.387C826.619 167.715 826.4 167.02 825.904 166.547L825.517 166.177C824.288 165.005 824.987 162.931 826.675 162.743L826.986 162.708C827.706 162.628 828.326 162.164 828.607 161.497L828.657 161.379Z" fill="#F4ECCE" fill-opacity="0.83"/>
</g>
<g filter="url(#filter10_f)">
<path d="M727.657 134.379C728.344 132.747 730.656 132.747 731.343 134.379L731.393 134.497C731.674 135.164 732.294 135.628 733.014 135.708L733.325 135.743C735.013 135.931 735.712 138.005 734.483 139.177L734.096 139.547C733.6 140.02 733.381 140.715 733.516 141.387L733.598 141.799C733.941 143.509 732.083 144.808 730.595 143.899L730.542 143.867C729.902 143.476 729.098 143.476 728.458 143.867L728.405 143.899C726.917 144.808 725.059 143.509 725.402 141.799L725.484 141.387C725.619 140.715 725.4 140.02 724.904 139.547L724.517 139.177C723.288 138.005 723.987 135.931 725.675 135.743L725.986 135.708C726.706 135.628 727.326 135.164 727.607 134.497L727.657 134.379Z" fill="#F4ECCE" fill-opacity="0.26"/>
</g>
<g filter="url(#filter11_f)">
<path d="M6.65669 134.379C7.34373 132.747 9.65627 132.747 10.3433 134.379L10.393 134.497C10.6741 135.164 11.2942 135.628 12.0142 135.708L12.3248 135.743C14.0126 135.931 14.7121 138.005 13.4834 139.177L13.0961 139.547C12.6001 140.02 12.3811 140.715 12.5157 141.387L12.5983 141.799C12.9409 143.509 11.0833 144.808 9.59488 143.899L9.54239 143.867C8.90241 143.476 8.09759 143.476 7.45761 143.867L7.40512 143.899C5.91671 144.808 4.05914 143.509 4.4017 141.799L4.48426 141.387C4.61891 140.715 4.39989 140.02 3.90391 139.547L3.51663 139.177C2.28794 138.005 2.98741 135.931 4.6752 135.743L4.98583 135.708C5.70577 135.628 6.32593 135.164 6.60702 134.497L6.65669 134.379Z" fill="#F4ECCE" fill-opacity="0.26"/>
</g>
<defs>
<filter id="filter0_f" x="72.9953" y="216.118" width="18.0094" height="17.8102" filterUnits="userSpaceOnUse" color-interpolation-filters="sRGB">
<feFlood flood-opacity="0" result="BackgroundImageFix"/>
<feBlend mode="normal" in="SourceGraphic" in2="BackgroundImageFix" result="shape"/>
<feGaussianBlur stdDeviation="1" result="effect1_foregroundBlur"/>
</filter>
<filter id="filter1_f" x="1151" y="1.11816" width="18.0094" height="17.8102" filterUnits="userSpaceOnUse" color-interpolation-filters="sRGB">
<feFlood flood-opacity="0" result="BackgroundImageFix"/>
<feBlend mode="normal" in="SourceGraphic" in2="BackgroundImageFix" result="shape"/>
<feGaussianBlur stdDeviation="1" result="effect1_foregroundBlur"/>
</filter>
<filter id="filter2_f" x="193.178" y="360.07" width="23.6433" height="23.3075" filterUnits="userSpaceOnUse" color-interpolation-filters="sRGB">
<feFlood flood-opacity="0" result="BackgroundImageFix"/>
<feBlend mode="normal" in="SourceGraphic" in2="BackgroundImageFix" result="shape"/>
<feGaussianBlur stdDeviation="1" result="effect1_foregroundBlur"/>
</filter>
<filter id="filter3_f" x="640.058" y="201.1" width="19.8832" height="19.6469" filterUnits="userSpaceOnUse" color-interpolation-filters="sRGB">
<feFlood flood-opacity="0" result="BackgroundImageFix"/>
<feBlend mode="normal" in="SourceGraphic" in2="BackgroundImageFix" result="shape"/>
<feGaussianBlur stdDeviation="1" result="effect1_foregroundBlur"/>
</filter>
<filter id="filter4_f" x="1374.89" y="11.1543" width="15.2104" height="15.0428" filterUnits="userSpaceOnUse" color-interpolation-filters="sRGB">
<feFlood flood-opacity="0" result="BackgroundImageFix"/>
<feBlend mode="normal" in="SourceGraphic" in2="BackgroundImageFix" result="shape"/>
<feGaussianBlur stdDeviation="1" result="effect1_foregroundBlur"/>
</filter>
<filter id="filter5_f" x="1113.89" y="436.154" width="15.2104" height="15.0428" filterUnits="userSpaceOnUse" color-interpolation-filters="sRGB">
<feFlood flood-opacity="0" result="BackgroundImageFix"/>
<feBlend mode="normal" in="SourceGraphic" in2="BackgroundImageFix" result="shape"/>
<feGaussianBlur stdDeviation="1" result="effect1_foregroundBlur"/>
</filter>
<filter id="filter6_f" x="348.895" y="44.1543" width="15.2104" height="15.0428" filterUnits="userSpaceOnUse" color-interpolation-filters="sRGB">
<feFlood flood-opacity="0" result="BackgroundImageFix"/>
<feBlend mode="normal" in="SourceGraphic" in2="BackgroundImageFix" result="shape"/>
<feGaussianBlur stdDeviation="1" result="effect1_foregroundBlur"/>
</filter>
<filter id="filter7_f" x="128.895" y="20.1543" width="15.2104" height="15.0428" filterUnits="userSpaceOnUse" color-interpolation-filters="sRGB">
<feFlood flood-opacity="0" result="BackgroundImageFix"/>
<feBlend mode="normal" in="SourceGraphic" in2="BackgroundImageFix" result="shape"/>
<feGaussianBlur stdDeviation="1" result="effect1_foregroundBlur"/>
</filter>
<filter id="filter8_f" x="1357.89" y="387.154" width="15.2104" height="15.0428" filterUnits="userSpaceOnUse" color-interpolation-filters="sRGB">
<feFlood flood-opacity="0" result="BackgroundImageFix"/>
<feBlend mode="normal" in="SourceGraphic" in2="BackgroundImageFix" result="shape"/>
<feGaussianBlur stdDeviation="1" result="effect1_foregroundBlur"/>
</filter>
<filter id="filter9_f" x="822.895" y="158.154" width="15.2104" height="15.0428" filterUnits="userSpaceOnUse" color-interpolation-filters="sRGB">
<feFlood flood-opacity="0" result="BackgroundImageFix"/>
<feBlend mode="normal" in="SourceGraphic" in2="BackgroundImageFix" result="shape"/>
<feGaussianBlur stdDeviation="1" result="effect1_foregroundBlur"/>
</filter>
<filter id="filter10_f" x="721.895" y="131.154" width="15.2104" height="15.0428" filterUnits="userSpaceOnUse" color-interpolation-filters="sRGB">
<feFlood flood-opacity="0" result="BackgroundImageFix"/>
<feBlend mode="normal" in="SourceGraphic" in2="BackgroundImageFix" result="shape"/>
<feGaussianBlur stdDeviation="1" result="effect1_foregroundBlur"/>
</filter>
<filter id="filter11_f" x="0.894793" y="131.154" width="15.2104" height="15.0428" filterUnits="userSpaceOnUse" color-interpolation-filters="sRGB">
<feFlood flood-opacity="0" result="BackgroundImageFix"/>
<feBlend mode="normal" in="SourceGraphic" in2="BackgroundImageFix" result="shape"/>
<feGaussianBlur stdDeviation="1" result="effect1_foregroundBlur"/>
</filter>
</defs>
</svg>
